<svg width="3770" height="297" viewBox="0 0 3770 297" fill="none" xmlns="http://www.w3.org/2000/svg">
<g clip-path="url(#clip0)">
<rect x="-91" width="3861" height="297" fill="#1E1E1E"/>
<path d="M178.645 133.8L177.901 133.132L177.102 134.023L178.12 134.651L178.645 133.8ZM32.5352 73V72H31.5352V73H32.5352ZM32.5352 206H31.5352V207H32.5352V206ZM66.7352 97.7V96.7H65.7352V97.7H66.7352ZM66.7352 125.25H65.7352V126.25H66.7352V125.25ZM66.7352 179.59H65.7352V180.59H66.7352V179.59ZM66.7352 151.47V150.47H65.7352V151.47H66.7352ZM179.389 134.468C186.183 126.898 190.095 117.546 190.095 107.96H188.095C188.095 116.994 184.407 125.882 177.901 133.132L179.389 134.468ZM190.095 107.96C190.095 98.0325 187.734 88.9954 181.382 82.4451C175.024 75.8893 164.839 72 149.575 72V74C164.522 74 174.096 77.8057 179.946 83.8374C185.801 89.8746 188.095 98.3175 188.095 107.96H190.095ZM149.575 72H32.5352V74H149.575V72ZM31.5352 73V206H33.5352V73H31.5352ZM32.5352 207H154.135V205H32.5352V207ZM154.135 207C169.416 207 180.529 202.865 187.823 195.743C195.118 188.619 198.455 178.642 198.455 167.24H196.455C196.455 178.258 193.237 187.661 186.425 194.312C179.612 200.965 169.065 205 154.135 205V207ZM198.455 167.24C198.455 151.468 190.834 140.141 179.17 132.949L178.12 134.651C189.257 141.518 196.455 152.232 196.455 167.24H198.455ZM66.7352 98.7H137.225V96.7H66.7352V98.7ZM137.225 98.7C139.564 98.7 141.779 98.701 143.812 98.9086C145.843 99.116 147.619 99.524 149.086 100.295C150.531 101.055 151.711 102.183 152.543 103.906C153.386 105.651 153.895 108.053 153.895 111.38H155.895C155.895 107.867 155.36 105.139 154.344 103.036C153.318 100.912 151.826 99.4755 150.017 98.5248C148.23 97.586 146.17 97.139 144.015 96.9189C141.862 96.699 139.541 96.7 137.225 96.7V98.7ZM153.895 111.38C153.895 114.756 153.385 117.196 152.543 118.97C151.711 120.722 150.535 121.866 149.102 122.635C147.648 123.416 145.892 123.829 143.89 124.039C141.885 124.249 139.707 124.25 137.415 124.25V126.25C139.683 126.25 141.97 126.251 144.098 126.028C146.228 125.804 148.273 125.35 150.048 124.397C151.846 123.432 153.329 121.976 154.35 119.828C155.36 117.7 155.895 114.939 155.895 111.38H153.895ZM137.415 124.25H137.225V126.25H137.415V124.25ZM137.225 124.25H66.7352V126.25H137.225V124.25ZM67.7352 125.25V97.7H65.7352V125.25H67.7352ZM145.775 178.59H66.7352V180.59H145.775V178.59ZM67.7352 179.59V151.47H65.7352V179.59H67.7352ZM66.7352 152.47H145.775V150.47H66.7352V152.47ZM145.775 152.47C148.067 152.47 150.245 152.471 152.248 152.684C154.25 152.897 156.004 153.315 157.457 154.106C160.243 155.622 162.255 158.702 162.255 165.53H164.255C164.255 158.298 162.087 154.348 158.413 152.349C156.636 151.382 154.591 150.922 152.46 150.695C150.331 150.469 148.043 150.47 145.775 150.47V152.47ZM162.255 165.53C162.255 172.358 160.243 175.438 157.457 176.954C156.004 177.745 154.25 178.163 152.248 178.376C150.245 178.589 148.067 178.59 145.775 178.59V180.59C148.043 180.59 150.331 180.591 152.46 180.365C154.591 180.138 156.636 179.678 158.413 178.711C162.087 176.712 164.255 172.762 164.255 165.53H162.255ZM242.286 177.31H241.286V178.31H242.286V177.31ZM242.286 73H243.286V72H242.286V73ZM208.086 73V72H207.086V73H208.086ZM208.086 206H207.086V207H208.086V206ZM344.886 206V207H345.886V206H344.886ZM344.886 177.31H345.886V176.31H344.886V177.31ZM243.286 177.31V73H241.286V177.31H243.286ZM242.286 72H208.086V74H242.286V72ZM207.086 73V206H209.086V73H207.086ZM208.086 207H344.886V205H208.086V207ZM345.886 206V177.31H343.886V206H345.886ZM344.886 176.31H242.286V178.31H344.886V176.31ZM432.681 208.9C461.961 208.9 483.139 202.752 497.004 190.895C510.901 179.011 517.281 161.543 517.281 139.31H515.281C515.281 161.157 509.025 177.984 495.704 189.375C482.352 200.793 461.73 206.9 432.681 206.9V208.9ZM517.281 139.31C517.281 117.17 510.9 99.7963 497.002 87.9843C483.136 76.1998 461.959 70.1 432.681 70.1V72.1C461.732 72.1 482.355 78.1602 495.707 89.5082C509.026 100.829 515.281 117.56 515.281 139.31H517.281ZM432.681 70.1C403.309 70.1 382.131 76.1512 368.288 87.9129C354.412 99.7028 348.081 117.079 348.081 139.31H350.081C350.081 117.461 356.289 100.732 369.583 89.4371C382.91 78.1138 403.532 72.1 432.681 72.1V70.1ZM348.081 139.31C348.081 161.635 354.411 179.105 368.286 190.966C382.129 202.801 403.308 208.9 432.681 208.9V206.9C403.533 206.9 382.912 200.839 369.585 189.446C356.29 178.08 350.081 161.255 350.081 139.31H348.081ZM432.681 178.21C414.993 178.21 402.933 175.081 395.295 168.75C387.703 162.458 384.281 152.83 384.281 139.31H382.281C382.281 153.15 385.793 163.472 394.019 170.29C402.198 177.069 414.838 180.21 432.681 180.21V178.21ZM384.281 139.31C384.281 125.884 387.657 116.353 395.221 110.134C402.834 103.873 414.894 100.79 432.681 100.79V98.79C414.747 98.79 402.107 101.882 393.95 108.589C385.744 115.337 382.281 125.566 382.281 139.31H384.281ZM432.681 100.79C450.464 100.79 462.525 103.92 470.139 110.204C477.705 116.448 481.081 125.981 481.081 139.31H483.081C483.081 125.659 479.616 115.432 471.412 108.661C463.256 101.93 450.617 98.79 432.681 98.79V100.79ZM481.081 139.31C481.081 152.733 477.659 162.363 470.065 168.68C462.426 175.034 450.365 178.21 432.681 178.21V180.21C450.526 180.21 463.165 177.021 471.344 170.218C479.567 163.377 483.081 153.057 483.081 139.31H481.081ZM692.746 149L693.742 149.088L693.838 148H692.746V149ZM657.976 149V148H657.114L656.987 148.853L657.976 149ZM657.976 129.62L656.987 129.769L657.115 130.62H657.976V129.62ZM692.746 129.62V130.62H693.839L693.742 129.531L692.746 129.62ZM525.116 139.31C525.116 161.635 531.446 179.105 545.321 190.966C559.164 202.801 580.343 208.9 609.716 208.9V206.9C580.568 206.9 559.948 200.839 546.621 189.446C533.325 178.08 527.116 161.255 527.116 139.31H525.116ZM609.716 208.9C636.327 208.9 656.47 203.801 670.413 193.724C684.395 183.619 692.011 168.604 693.742 149.088L691.75 148.912C690.06 167.966 682.667 182.401 669.241 192.103C655.776 201.834 636.114 206.9 609.716 206.9V208.9ZM692.746 148H657.976V150H692.746V148ZM656.987 148.853C655.411 159.417 650.578 166.693 642.738 171.369C634.842 176.079 623.796 178.21 609.716 178.21V180.21C623.945 180.21 635.415 178.066 643.763 173.086C652.169 168.072 657.31 160.243 658.965 149.147L656.987 148.853ZM609.716 178.21C592.51 178.21 580.442 175.083 572.681 168.745C564.966 162.446 561.316 152.811 561.316 139.31H559.316C559.316 153.169 563.076 163.484 571.416 170.295C579.709 177.067 592.341 180.21 609.716 180.21V178.21ZM561.316 139.31C561.316 125.902 564.919 116.366 572.606 110.138C580.344 103.871 592.411 100.79 609.716 100.79V98.79C592.25 98.79 579.618 101.884 571.347 108.584C563.027 115.324 559.316 125.548 559.316 139.31H561.316ZM609.716 100.79C623.895 100.79 634.941 102.875 642.814 107.515C650.627 112.12 655.412 119.299 656.987 129.769L658.965 129.471C657.31 118.471 652.215 110.735 643.83 105.792C635.505 100.885 624.036 98.79 609.716 98.79V100.79ZM657.976 130.62H692.746V128.62H657.976V130.62ZM693.742 129.531C692.011 110.108 684.393 95.1879 670.41 85.155C656.468 75.1513 636.326 70.1 609.716 70.1V72.1C636.116 72.1 655.779 77.1186 669.244 86.78C682.668 96.4121 690.06 110.752 691.75 129.709L693.742 129.531ZM609.716 70.1C580.345 70.1 559.166 76.1512 545.323 87.9129C531.447 99.7028 525.116 117.079 525.116 139.31H527.116C527.116 117.461 533.324 100.732 546.618 89.4371C559.945 78.1138 580.567 72.1 609.716 72.1V70.1ZM885.374 73L885.966 73.8063L888.428 72H885.374V73ZM833.504 73V72H833.179L832.916 72.1913L833.504 73ZM738.694 141.97H737.694V143.934L739.282 142.779L738.694 141.97ZM738.694 73H739.694V72H738.694V73ZM704.494 73V72H703.494V73H704.494ZM704.494 206H703.494V207H704.494V206ZM738.694 206V207H739.694V206H738.694ZM738.694 180.54L738.104 179.732L737.694 180.032V180.54H738.694ZM779.544 150.71L780.231 149.983L779.626 149.412L778.954 149.902L779.544 150.71ZM838.064 206L837.377 206.727L837.667 207H838.064V206ZM885.374 206V207H887.943L886.05 205.263L885.374 206ZM804.814 132.09L804.223 131.284L803.241 132.004L804.138 132.827L804.814 132.09ZM885.374 72H833.504V74H885.374V72ZM832.916 72.1913L738.106 141.161L739.282 142.779L834.092 73.8087L832.916 72.1913ZM739.694 141.97V73H737.694V141.97H739.694ZM738.694 72H704.494V74H738.694V72ZM703.494 73V206H705.494V73H703.494ZM704.494 207H738.694V205H704.494V207ZM739.694 206V180.54H737.694V206H739.694ZM739.284 181.348L780.134 151.518L778.954 149.902L738.104 179.732L739.284 181.348ZM778.857 151.437L837.377 206.727L838.751 205.273L780.231 149.983L778.857 151.437ZM838.064 207H885.374V205H838.064V207ZM886.05 205.263L805.49 131.353L804.138 132.827L884.698 206.737L886.05 205.263ZM805.406 132.896L885.966 73.8063L884.783 72.1936L804.223 131.284L805.406 132.896ZM1039.77 149L1040.76 149.088L1040.86 148H1039.77V149ZM1005 149V148H1004.13L1004.01 148.853L1005 149ZM1005 129.62L1004.01 129.769L1004.13 130.62H1005V129.62ZM1039.77 129.62V130.62H1040.86L1040.76 129.531L1039.77 129.62ZM872.135 139.31C872.135 161.635 878.466 179.105 892.34 190.966C906.183 202.801 927.363 208.9 956.735 208.9V206.9C927.588 206.9 906.967 200.839 893.64 189.446C880.345 178.08 874.135 161.255 874.135 139.31H872.135ZM956.735 208.9C983.347 208.9 1003.49 203.801 1017.43 193.724C1031.41 183.619 1039.03 168.604 1040.76 149.088L1038.77 148.912C1037.08 167.966 1029.69 182.401 1016.26 192.103C1002.8 201.834 983.134 206.9 956.735 206.9V208.9ZM1039.77 148H1005V150H1039.77V148ZM1004.01 148.853C1002.43 159.417 997.597 166.693 989.758 171.369C981.861 176.079 970.816 178.21 956.735 178.21V180.21C970.965 180.21 982.434 178.066 990.783 173.086C999.188 168.072 1004.33 160.243 1005.98 149.147L1004.01 148.853ZM956.735 178.21C939.53 178.21 927.462 175.083 919.7 168.745C911.985 162.446 908.335 152.811 908.335 139.31H906.335C906.335 153.169 910.095 163.484 918.435 170.295C926.729 177.067 939.36 180.21 956.735 180.21V178.21ZM908.335 139.31C908.335 125.902 911.939 116.366 919.626 110.138C927.363 103.871 939.431 100.79 956.735 100.79V98.79C939.269 98.79 926.637 101.884 918.367 108.584C910.047 115.324 906.335 125.548 906.335 139.31H908.335ZM956.735 100.79C970.915 100.79 981.961 102.875 989.834 107.515C997.646 112.12 1002.43 119.299 1004.01 129.769L1005.98 129.471C1004.33 118.471 999.234 110.735 990.849 105.792C982.525 100.885 971.056 98.79 956.735 98.79V100.79ZM1005 130.62H1039.77V128.62H1005V130.62ZM1040.76 129.531C1039.03 110.108 1031.41 95.1879 1017.43 85.155C1003.49 75.1513 983.345 70.1 956.735 70.1V72.1C983.135 72.1 1002.8 77.1186 1016.26 86.78C1029.69 96.4121 1037.08 110.752 1038.77 129.709L1040.76 129.531ZM956.735 70.1C927.364 70.1 906.186 76.1512 892.343 87.9129C878.467 99.7028 872.135 117.079 872.135 139.31H874.135C874.135 117.461 880.344 100.732 893.638 89.4371C906.965 78.1138 927.586 72.1 956.735 72.1V70.1ZM1194.01 73V72H1193.01V73H1194.01ZM1194.01 125.06V126.06H1195.01V125.06H1194.01ZM1085.71 125.06H1084.71V126.06H1085.71V125.06ZM1085.71 73H1086.71V72H1085.71V73ZM1051.51 73V72H1050.51V73H1051.51ZM1051.51 206H1050.51V207H1051.51V206ZM1085.71 206V207H1086.71V206H1085.71ZM1085.71 153.94V152.94H1084.71V153.94H1085.71ZM1194.01 153.94H1195.01V152.94H1194.01V153.94ZM1194.01 206H1193.01V207H1194.01V206ZM1228.21 206V207H1229.21V206H1228.21ZM1228.21 73H1229.21V72H1228.21V73ZM1193.01 73V125.06H1195.01V73H1193.01ZM1194.01 124.06H1085.71V126.06H1194.01V124.06ZM1086.71 125.06V73H1084.71V125.06H1086.71ZM1085.71 72H1051.51V74H1085.71V72ZM1050.51 73V206H1052.51V73H1050.51ZM1051.51 207H1085.71V205H1051.51V207ZM1086.71 206V153.94H1084.71V206H1086.71ZM1085.71 154.94H1194.01V152.94H1085.71V154.94ZM1193.01 153.94V206H1195.01V153.94H1193.01ZM1194.01 207H1228.21V205H1194.01V207ZM1229.21 206V73H1227.21V206H1229.21ZM1228.21 72H1194.01V74H1228.21V72ZM1381.29 206L1380.39 206.45L1380.67 207H1381.29V206ZM1419.1 206V207H1420.74L1419.98 205.541L1419.1 206ZM1350.32 73L1351.2 72.5406L1350.92 72H1350.32V73ZM1304.15 73V72H1303.54L1303.26 72.5416L1304.15 73ZM1235.56 206L1234.67 205.542L1233.91 207H1235.56V206ZM1273.18 206V207H1273.79L1274.07 206.45L1273.18 206ZM1287.43 177.69V176.69H1286.81L1286.53 177.24L1287.43 177.69ZM1367.04 177.69L1367.93 177.24L1367.65 176.69H1367.04V177.69ZM1300.16 152.23L1299.26 151.78L1298.53 153.23H1300.16V152.23ZM1327.33 98.27L1328.22 97.8228L1327.33 96.0402L1326.43 97.8203L1327.33 98.27ZM1354.31 152.23V153.23H1355.92L1355.2 151.783L1354.31 152.23ZM1381.29 207H1419.1V205H1381.29V207ZM1419.98 205.541L1351.2 72.5406L1349.43 73.4593L1418.21 206.459L1419.98 205.541ZM1350.32 72H1304.15V74H1350.32V72ZM1303.26 72.5416L1234.67 205.542L1236.44 206.458L1305.03 73.4583L1303.26 72.5416ZM1235.56 207H1273.18V205H1235.56V207ZM1274.07 206.45L1288.32 178.14L1286.53 177.24L1272.28 205.55L1274.07 206.45ZM1287.43 178.69H1367.04V176.69H1287.43V178.69ZM1366.14 178.14L1380.39 206.45L1382.18 205.55L1367.93 177.24L1366.14 178.14ZM1301.05 152.68L1328.22 98.7197L1326.43 97.8203L1299.26 151.78L1301.05 152.68ZM1326.43 98.7172L1353.41 152.677L1355.2 151.783L1328.22 97.8228L1326.43 98.7172ZM1354.31 151.23H1300.16V153.23H1354.31V151.23ZM1460.75 73H1461.75V72H1460.75V73ZM1426.55 73V72H1425.55V73H1426.55ZM1426.55 206H1425.55V207H1426.55V206ZM1460.75 206V207H1461.75V206H1460.75ZM1460.75 72H1426.55V74H1460.75V72ZM1425.55 73V206H1427.55V73H1425.55ZM1426.55 207H1460.75V205H1426.55V207ZM1461.75 206V73H1459.75V206H1461.75ZM1612.37 73V72H1611.37V73H1612.37ZM1612.37 172.94L1611.63 173.613L1613.37 175.527V172.94H1612.37ZM1521.55 73L1522.29 72.3275L1521.99 72H1521.55V73ZM1475.19 73V72H1474.19V73H1475.19ZM1475.19 206H1474.19V207H1475.19V206ZM1509.39 206V207H1510.39V206H1509.39ZM1509.39 106.25L1510.13 105.578L1508.39 103.662V106.25H1509.39ZM1600.02 206L1599.28 206.672L1599.58 207H1600.02V206ZM1646.57 206V207H1647.57V206H1646.57ZM1646.57 73H1647.57V72H1646.57V73ZM1611.37 73V172.94H1613.37V73H1611.37ZM1613.11 172.267L1522.29 72.3275L1520.81 73.6725L1611.63 173.613L1613.11 172.267ZM1521.55 72H1475.19V74H1521.55V72ZM1474.19 73V206H1476.19V73H1474.19ZM1475.19 207H1509.39V205H1475.19V207ZM1510.39 206V106.25H1508.39V206H1510.39ZM1508.65 106.922L1599.28 206.672L1600.76 205.328L1510.13 105.578L1508.65 106.922ZM1600.02 207H1646.57V205H1600.02V207ZM1647.57 206V73H1645.57V206H1647.57ZM1646.57 72H1612.37V74H1646.57V72ZM1739.05 164.77V165.77H1739.93L1740.04 164.898L1739.05 164.77ZM1660.2 123.16H1659.2V124.16H1660.2V123.16ZM1694.4 123.16V124.16H1695.4V123.16H1694.4ZM1706.56 164.77H1705.56V165.77H1706.56V164.77ZM1706.56 180.54V179.54H1705.56V180.54H1706.56ZM1706.56 206H1705.56V207H1706.56V206ZM1739.05 206V207H1740.05V206H1739.05ZM1739.05 180.54H1740.05V179.54H1739.05V180.54ZM1740.04 164.898C1740.79 159.118 1744.85 155.309 1750.93 152.219C1757.04 149.112 1764.86 146.887 1772.8 144.101C1780.66 141.342 1788.57 138.049 1794.51 132.817C1800.51 127.54 1804.46 120.323 1804.46 109.86H1802.46C1802.46 119.727 1798.77 126.404 1793.19 131.316C1787.56 136.272 1779.97 139.463 1772.14 142.214C1764.38 144.938 1756.29 147.249 1750.02 150.436C1743.72 153.639 1738.93 157.882 1738.06 164.642L1740.04 164.898ZM1804.46 109.86C1804.46 102.48 1802.75 96.2541 1799.45 91.0821C1796.15 85.9131 1791.31 81.8602 1785.15 78.757C1772.87 72.5683 1755.24 70.1 1733.73 70.1V72.1C1755.16 72.1 1772.4 74.5717 1784.25 80.543C1790.16 83.5198 1794.69 87.3519 1797.76 92.1579C1800.83 96.9609 1802.46 102.8 1802.46 109.86H1804.46ZM1733.73 70.1C1712.51 70.1 1693.9 72.5651 1680.57 80.4518C1667.13 88.4021 1659.2 101.775 1659.2 123.16H1661.2C1661.2 102.365 1668.85 89.7078 1681.59 82.1731C1694.43 74.5749 1712.58 72.1 1733.73 72.1V70.1ZM1660.2 124.16H1694.4V122.16H1660.2V124.16ZM1695.4 123.16C1695.4 118.524 1696.22 114.868 1697.82 111.975C1699.41 109.095 1701.8 106.899 1705.07 105.242C1711.67 101.894 1721.76 100.79 1735.63 100.79V98.79C1721.77 98.79 1711.24 99.8711 1704.16 103.458C1700.59 105.269 1697.88 107.728 1696.07 111.01C1694.26 114.281 1693.4 118.296 1693.4 123.16H1695.4ZM1735.63 100.79C1747.86 100.79 1756.09 102.027 1761.23 104.292C1763.79 105.417 1765.54 106.773 1766.64 108.31C1767.74 109.836 1768.26 111.608 1768.26 113.66H1770.26C1770.26 111.247 1769.64 109.053 1768.26 107.141C1766.9 105.24 1764.83 103.687 1762.04 102.461C1756.5 100.023 1747.92 98.79 1735.63 98.79V100.79ZM1768.26 113.66C1768.26 116.459 1767.37 118.619 1765.82 120.386C1764.24 122.179 1761.94 123.611 1759.07 124.841C1753.28 127.323 1745.6 128.814 1737.65 130.983C1729.79 133.125 1721.77 135.913 1715.71 141.003C1709.6 146.141 1705.56 153.563 1705.56 164.77H1707.56C1707.56 154.127 1711.36 147.275 1717 142.534C1722.7 137.743 1730.35 135.045 1738.17 132.912C1745.9 130.806 1753.9 129.233 1759.86 126.68C1762.86 125.392 1765.47 123.814 1767.32 121.706C1769.19 119.572 1770.26 116.941 1770.26 113.66H1768.26ZM1706.56 165.77H1739.05V163.77H1706.56V165.77ZM1705.56 180.54V206H1707.56V180.54H1705.56ZM1706.56 207H1739.05V205H1706.56V207ZM1740.05 206V180.54H1738.05V206H1740.05ZM1739.05 179.54H1706.56V181.54H1739.05V179.54ZM2137.4 133.8L2136.65 133.132L2135.85 134.023L2136.87 134.651L2137.4 133.8ZM1991.29 73V72H1990.29V73H1991.29ZM1991.29 206H1990.29V207H1991.29V206ZM2025.49 97.7V96.7H2024.49V97.7H2025.49ZM2025.49 125.25H2024.49V126.25H2025.49V125.25ZM2025.49 179.59H2024.49V180.59H2025.49V179.59ZM2025.49 151.47V150.47H2024.49V151.47H2025.49ZM2138.14 134.468C2144.94 126.898 2148.85 117.546 2148.85 107.96H2146.85C2146.85 116.994 2143.16 125.882 2136.65 133.132L2138.14 134.468ZM2148.85 107.96C2148.85 98.0325 2146.49 88.9954 2140.13 82.4451C2133.78 75.8893 2123.59 72 2108.33 72V74C2123.27 74 2132.85 77.8057 2138.7 83.8374C2144.55 89.8746 2146.85 98.3175 2146.85 107.96H2148.85ZM2108.33 72H1991.29V74H2108.33V72ZM1990.29 73V206H1992.29V73H1990.29ZM1991.29 207H2112.89V205H1991.29V207ZM2112.89 207C2128.17 207 2139.28 202.865 2146.57 195.743C2153.87 188.619 2157.21 178.642 2157.21 167.24H2155.21C2155.21 178.258 2151.99 187.661 2145.18 194.312C2138.36 200.965 2127.82 205 2112.89 205V207ZM2157.21 167.24C2157.21 151.468 2149.59 140.141 2137.92 132.949L2136.87 134.651C2148.01 141.518 2155.21 152.232 2155.21 167.24H2157.21ZM2025.49 98.7H2095.98V96.7H2025.49V98.7ZM2095.98 98.7C2098.32 98.7 2100.53 98.701 2102.56 98.9086C2104.6 99.116 2106.37 99.524 2107.84 100.295C2109.28 101.055 2110.46 102.183 2111.3 103.906C2112.14 105.651 2112.65 108.053 2112.65 111.38H2114.65C2114.65 107.867 2114.11 105.139 2113.1 103.036C2112.07 100.912 2110.58 99.4755 2108.77 98.5248C2106.98 97.586 2104.92 97.139 2102.77 96.9189C2100.61 96.699 2098.29 96.7 2095.98 96.7V98.7ZM2112.65 111.38C2112.65 114.756 2112.14 117.196 2111.3 118.97C2110.46 120.722 2109.29 121.866 2107.85 122.635C2106.4 123.416 2104.64 123.829 2102.64 124.039C2100.64 124.249 2098.46 124.25 2096.17 124.25V126.25C2098.44 126.25 2100.72 126.251 2102.85 126.028C2104.98 125.804 2107.02 125.35 2108.8 124.397C2110.6 123.432 2112.08 121.976 2113.1 119.828C2114.11 117.7 2114.65 114.939 2114.65 111.38H2112.65ZM2096.17 124.25H2095.98V126.25H2096.17V124.25ZM2095.98 124.25H2025.49V126.25H2095.98V124.25ZM2026.49 125.25V97.7H2024.49V125.25H2026.49ZM2104.53 178.59H2025.49V180.59H2104.53V178.59ZM2026.49 179.59V151.47H2024.49V179.59H2026.49ZM2025.49 152.47H2104.53V150.47H2025.49V152.47ZM2104.53 152.47C2106.82 152.47 2109 152.471 2111 152.684C2113 152.897 2114.76 153.315 2116.21 154.106C2119 155.622 2121.01 158.702 2121.01 165.53H2123.01C2123.01 158.298 2120.84 154.348 2117.17 152.349C2115.39 151.382 2113.34 150.922 2111.21 150.695C2109.08 150.469 2106.8 150.47 2104.53 150.47V152.47ZM2121.01 165.53C2121.01 172.358 2119 175.438 2116.21 176.954C2114.76 177.745 2113 178.163 2111 178.376C2109 178.589 2106.82 178.59 2104.53 178.59V180.59C2106.8 180.59 2109.08 180.591 2111.21 180.365C2113.34 180.138 2115.39 179.678 2117.17 178.711C2120.84 176.712 2123.01 172.762 2123.01 165.53H2121.01ZM2201.04 177.31H2200.04V178.31H2201.04V177.31ZM2201.04 73H2202.04V72H2201.04V73ZM2166.84 73V72H2165.84V73H2166.84ZM2166.84 206H2165.84V207H2166.84V206ZM2303.64 206V207H2304.64V206H2303.64ZM2303.64 177.31H2304.64V176.31H2303.64V177.31ZM2202.04 177.31V73H2200.04V177.31H2202.04ZM2201.04 72H2166.84V74H2201.04V72ZM2165.84 73V206H2167.84V73H2165.84ZM2166.84 207H2303.64V205H2166.84V207ZM2304.64 206V177.31H2302.64V206H2304.64ZM2303.64 176.31H2201.04V178.31H2303.64V176.31ZM2391.43 208.9C2420.71 208.9 2441.89 202.752 2455.76 190.895C2469.65 179.011 2476.03 161.543 2476.03 139.31H2474.03C2474.03 161.157 2467.78 177.984 2454.46 189.375C2441.1 200.793 2420.48 206.9 2391.43 206.9V208.9ZM2476.03 139.31C2476.03 117.17 2469.65 99.7963 2455.75 87.9843C2441.89 76.1998 2420.71 70.1 2391.43 70.1V72.1C2420.48 72.1 2441.11 78.1602 2454.46 89.5082C2467.78 100.829 2474.03 117.56 2474.03 139.31H2476.03ZM2391.43 70.1C2362.06 70.1 2340.88 76.1512 2327.04 87.9129C2313.16 99.7028 2306.83 117.079 2306.83 139.31H2308.83C2308.83 117.461 2315.04 100.732 2328.33 89.4371C2341.66 78.1138 2362.28 72.1 2391.43 72.1V70.1ZM2306.83 139.31C2306.83 161.635 2313.16 179.105 2327.04 190.966C2340.88 202.801 2362.06 208.9 2391.43 208.9V206.9C2362.29 206.9 2341.66 200.839 2328.34 189.446C2315.04 178.08 2308.83 161.255 2308.83 139.31H2306.83ZM2391.43 178.21C2373.75 178.21 2361.68 175.081 2354.05 168.75C2346.46 162.458 2343.03 152.83 2343.03 139.31H2341.03C2341.03 153.15 2344.54 163.472 2352.77 170.29C2360.95 177.069 2373.59 180.21 2391.43 180.21V178.21ZM2343.03 139.31C2343.03 125.884 2346.41 116.353 2353.97 110.134C2361.59 103.873 2373.65 100.79 2391.43 100.79V98.79C2373.5 98.79 2360.86 101.882 2352.7 108.589C2344.5 115.337 2341.03 125.566 2341.03 139.31H2343.03ZM2391.43 100.79C2409.22 100.79 2421.28 103.92 2428.89 110.204C2436.46 116.448 2439.83 125.981 2439.83 139.31H2441.83C2441.83 125.659 2438.37 115.432 2430.16 108.661C2422.01 101.93 2409.37 98.79 2391.43 98.79V100.79ZM2439.83 139.31C2439.83 152.733 2436.41 162.363 2428.82 168.68C2421.18 175.034 2409.12 178.21 2391.43 178.21V180.21C2409.28 180.21 2421.92 177.021 2430.1 170.218C2438.32 163.377 2441.83 153.057 2441.83 139.31H2439.83ZM2651.5 149L2652.49 149.088L2652.59 148H2651.5V149ZM2616.73 149V148H2615.87L2615.74 148.853L2616.73 149ZM2616.73 129.62L2615.74 129.769L2615.87 130.62H2616.73V129.62ZM2651.5 129.62V130.62H2652.59L2652.49 129.531L2651.5 129.62ZM2483.87 139.31C2483.87 161.635 2490.2 179.105 2504.07 190.966C2517.92 202.801 2539.1 208.9 2568.47 208.9V206.9C2539.32 206.9 2518.7 200.839 2505.37 189.446C2492.08 178.08 2485.87 161.255 2485.87 139.31H2483.87ZM2568.47 208.9C2595.08 208.9 2615.22 203.801 2629.16 193.724C2643.15 183.619 2650.76 168.604 2652.49 149.088L2650.5 148.912C2648.81 167.966 2641.42 182.401 2627.99 192.103C2614.53 201.834 2594.87 206.9 2568.47 206.9V208.9ZM2651.5 148H2616.73V150H2651.5V148ZM2615.74 148.853C2614.16 159.417 2609.33 166.693 2601.49 171.369C2593.59 176.079 2582.55 178.21 2568.47 178.21V180.21C2582.7 180.21 2594.17 178.066 2602.51 173.086C2610.92 168.072 2616.06 160.243 2617.72 149.147L2615.74 148.853ZM2568.47 178.21C2551.26 178.21 2539.19 175.083 2531.43 168.745C2523.72 162.446 2520.07 152.811 2520.07 139.31H2518.07C2518.07 153.169 2521.83 163.484 2530.17 170.295C2538.46 177.067 2551.09 180.21 2568.47 180.21V178.21ZM2520.07 139.31C2520.07 125.902 2523.67 116.366 2531.36 110.138C2539.1 103.871 2551.16 100.79 2568.47 100.79V98.79C2551 98.79 2538.37 101.884 2530.1 108.584C2521.78 115.324 2518.07 125.548 2518.07 139.31H2520.07ZM2568.47 100.79C2582.65 100.79 2593.69 102.875 2601.57 107.515C2609.38 112.12 2614.16 119.299 2615.74 129.769L2617.72 129.471C2616.06 118.471 2610.97 110.735 2602.58 105.792C2594.26 100.885 2582.79 98.79 2568.47 98.79V100.79ZM2616.73 130.62H2651.5V128.62H2616.73V130.62ZM2652.49 129.531C2650.76 110.108 2643.14 95.1879 2629.16 85.155C2615.22 75.1513 2595.08 70.1 2568.47 70.1V72.1C2594.87 72.1 2614.53 77.1186 2628 86.78C2641.42 96.4121 2648.81 110.752 2650.5 129.709L2652.49 129.531ZM2568.47 70.1C2539.1 70.1 2517.92 76.1512 2504.08 87.9129C2490.2 99.7028 2483.87 117.079 2483.87 139.31H2485.87C2485.87 117.461 2492.08 100.732 2505.37 89.4371C2518.7 78.1138 2539.32 72.1 2568.47 72.1V70.1ZM2844.13 73L2844.72 73.8063L2847.18 72H2844.13V73ZM2792.26 73V72H2791.93L2791.67 72.1913L2792.26 73ZM2697.45 141.97H2696.45V143.934L2698.03 142.779L2697.45 141.97ZM2697.45 73H2698.45V72H2697.45V73ZM2663.25 73V72H2662.25V73H2663.25ZM2663.25 206H2662.25V207H2663.25V206ZM2697.45 206V207H2698.45V206H2697.45ZM2697.45 180.54L2696.86 179.732L2696.45 180.032V180.54H2697.45ZM2738.3 150.71L2738.98 149.983L2738.38 149.412L2737.71 149.902L2738.3 150.71ZM2796.82 206L2796.13 206.727L2796.42 207H2796.82V206ZM2844.13 206V207H2846.7L2844.8 205.263L2844.13 206ZM2763.57 132.09L2762.97 131.284L2761.99 132.004L2762.89 132.827L2763.57 132.09ZM2844.13 72H2792.26V74H2844.13V72ZM2791.67 72.1913L2696.86 141.161L2698.03 142.779L2792.84 73.8087L2791.67 72.1913ZM2698.45 141.97V73H2696.45V141.97H2698.45ZM2697.45 72H2663.25V74H2697.45V72ZM2662.25 73V206H2664.25V73H2662.25ZM2663.25 207H2697.45V205H2663.25V207ZM2698.45 206V180.54H2696.45V206H2698.45ZM2698.04 181.348L2738.89 151.518L2737.71 149.902L2696.86 179.732L2698.04 181.348ZM2737.61 151.437L2796.13 206.727L2797.5 205.273L2738.98 149.983L2737.61 151.437ZM2796.82 207H2844.13V205H2796.82V207ZM2844.8 205.263L2764.24 131.353L2762.89 132.827L2843.45 206.737L2844.8 205.263ZM2764.16 132.896L2844.72 73.8063L2843.53 72.1936L2762.97 131.284L2764.16 132.896ZM2998.52 149L2999.51 149.088L2999.61 148H2998.52V149ZM2963.75 149V148H2962.89L2962.76 148.853L2963.75 149ZM2963.75 129.62L2962.76 129.769L2962.89 130.62H2963.75V129.62ZM2998.52 129.62V130.62H2999.61L2999.51 129.531L2998.52 129.62ZM2830.89 139.31C2830.89 161.635 2837.22 179.105 2851.09 190.966C2864.94 202.801 2886.11 208.9 2915.49 208.9V206.9C2886.34 206.9 2865.72 200.839 2852.39 189.446C2839.1 178.08 2832.89 161.255 2832.89 139.31H2830.89ZM2915.49 208.9C2942.1 208.9 2962.24 203.801 2976.18 193.724C2990.17 183.619 2997.78 168.604 2999.51 149.088L2997.52 148.912C2995.83 167.966 2988.44 182.401 2975.01 192.103C2961.55 201.834 2941.89 206.9 2915.49 206.9V208.9ZM2998.52 148H2963.75V150H2998.52V148ZM2962.76 148.853C2961.18 159.417 2956.35 166.693 2948.51 171.369C2940.61 176.079 2929.57 178.21 2915.49 178.21V180.21C2929.72 180.21 2941.19 178.066 2949.53 173.086C2957.94 168.072 2963.08 160.243 2964.74 149.147L2962.76 148.853ZM2915.49 178.21C2898.28 178.21 2886.21 175.083 2878.45 168.745C2870.74 162.446 2867.09 152.811 2867.09 139.31H2865.09C2865.09 153.169 2868.85 163.484 2877.19 170.295C2885.48 177.067 2898.11 180.21 2915.49 180.21V178.21ZM2867.09 139.31C2867.09 125.902 2870.69 116.366 2878.38 110.138C2886.12 103.871 2898.18 100.79 2915.49 100.79V98.79C2898.02 98.79 2885.39 101.884 2877.12 108.584C2868.8 115.324 2865.09 125.548 2865.09 139.31H2867.09ZM2915.49 100.79C2929.67 100.79 2940.71 102.875 2948.59 107.515C2956.4 112.12 2961.18 119.299 2962.76 129.769L2964.74 129.471C2963.08 118.471 2957.99 110.735 2949.6 105.792C2941.28 100.885 2929.81 98.79 2915.49 98.79V100.79ZM2963.75 130.62H2998.52V128.62H2963.75V130.62ZM2999.51 129.531C2997.78 110.108 2990.16 95.1879 2976.18 85.155C2962.24 75.1513 2942.1 70.1 2915.49 70.1V72.1C2941.89 72.1 2961.55 77.1186 2975.02 86.78C2988.44 96.4121 2995.83 110.752 2997.52 129.709L2999.51 129.531ZM2915.49 70.1C2886.12 70.1 2864.94 76.1512 2851.09 87.9129C2837.22 99.7028 2830.89 117.079 2830.89 139.31H2832.89C2832.89 117.461 2839.1 100.732 2852.39 89.4371C2865.72 78.1138 2886.34 72.1 2915.49 72.1V70.1ZM3152.77 73V72H3151.77V73H3152.77ZM3152.77 125.06V126.06H3153.77V125.06H3152.77ZM3044.47 125.06H3043.47V126.06H3044.47V125.06ZM3044.47 73H3045.47V72H3044.47V73ZM3010.27 73V72H3009.27V73H3010.27ZM3010.27 206H3009.27V207H3010.27V206ZM3044.47 206V207H3045.47V206H3044.47ZM3044.47 153.94V152.94H3043.47V153.94H3044.47ZM3152.77 153.94H3153.77V152.94H3152.77V153.94ZM3152.77 206H3151.77V207H3152.77V206ZM3186.97 206V207H3187.97V206H3186.97ZM3186.97 73H3187.97V72H3186.97V73ZM3151.77 73V125.06H3153.77V73H3151.77ZM3152.77 124.06H3044.47V126.06H3152.77V124.06ZM3045.47 125.06V73H3043.47V125.06H3045.47ZM3044.47 72H3010.27V74H3044.47V72ZM3009.27 73V206H3011.27V73H3009.27ZM3010.27 207H3044.47V205H3010.27V207ZM3045.47 206V153.94H3043.47V206H3045.47ZM3044.47 154.94H3152.77V152.94H3044.47V154.94ZM3151.77 153.94V206H3153.77V153.94H3151.77ZM3152.77 207H3186.97V205H3152.77V207ZM3187.97 206V73H3185.97V206H3187.97ZM3186.97 72H3152.77V74H3186.97V72ZM3340.04 206L3339.14 206.45L3339.42 207H3340.04V206ZM3377.85 206V207H3379.49L3378.74 205.541L3377.85 206ZM3309.07 73L3309.96 72.5406L3309.68 72H3309.07V73ZM3262.9 73V72H3262.29L3262.01 72.5416L3262.9 73ZM3194.31 206L3193.42 205.542L3192.67 207H3194.31V206ZM3231.93 206V207H3232.54L3232.82 206.45L3231.93 206ZM3246.18 177.69V176.69H3245.56L3245.28 177.24L3246.18 177.69ZM3325.79 177.69L3326.68 177.24L3326.4 176.69H3325.79V177.69ZM3258.91 152.23L3258.01 151.78L3257.28 153.23H3258.91V152.23ZM3286.08 98.27L3286.97 97.8228L3286.08 96.0402L3285.18 97.8203L3286.08 98.27ZM3313.06 152.23V153.23H3314.68L3313.95 151.783L3313.06 152.23ZM3340.04 207H3377.85V205H3340.04V207ZM3378.74 205.541L3309.96 72.5406L3308.18 73.4593L3376.96 206.459L3378.74 205.541ZM3309.07 72H3262.9V74H3309.07V72ZM3262.01 72.5416L3193.42 205.542L3195.2 206.458L3263.79 73.4583L3262.01 72.5416ZM3194.31 207H3231.93V205H3194.31V207ZM3232.82 206.45L3247.07 178.14L3245.28 177.24L3231.03 205.55L3232.82 206.45ZM3246.18 178.69H3325.79V176.69H3246.18V178.69ZM3324.89 178.14L3339.14 206.45L3340.93 205.55L3326.68 177.24L3324.89 178.14ZM3259.8 152.68L3286.97 98.7197L3285.18 97.8203L3258.01 151.78L3259.8 152.68ZM3285.18 98.7172L3312.16 152.677L3313.95 151.783L3286.97 97.8228L3285.18 98.7172ZM3313.06 151.23H3258.91V153.23H3313.06V151.23ZM3419.5 73H3420.5V72H3419.5V73ZM3385.3 73V72H3384.3V73H3385.3ZM3385.3 206H3384.3V207H3385.3V206ZM3419.5 206V207H3420.5V206H3419.5ZM3419.5 72H3385.3V74H3419.5V72ZM3384.3 73V206H3386.3V73H3384.3ZM3385.3 207H3419.5V205H3385.3V207ZM3420.5 206V73H3418.5V206H3420.5ZM3571.12 73V72H3570.12V73H3571.12ZM3571.12 172.94L3570.38 173.613L3572.12 175.527V172.94H3571.12ZM3480.3 73L3481.04 72.3275L3480.74 72H3480.3V73ZM3433.94 73V72H3432.94V73H3433.94ZM3433.94 206H3432.94V207H3433.94V206ZM3468.14 206V207H3469.14V206H3468.14ZM3468.14 106.25L3468.88 105.578L3467.14 103.662V106.25H3468.14ZM3558.77 206L3558.03 206.672L3558.33 207H3558.77V206ZM3605.32 206V207H3606.32V206H3605.32ZM3605.32 73H3606.32V72H3605.32V73ZM3570.12 73V172.94H3572.12V73H3570.12ZM3571.86 172.267L3481.04 72.3275L3479.56 73.6725L3570.38 173.613L3571.86 172.267ZM3480.3 72H3433.94V74H3480.3V72ZM3432.94 73V206H3434.94V73H3432.94ZM3433.94 207H3468.14V205H3433.94V207ZM3469.14 206V106.25H3467.14V206H3469.14ZM3467.4 106.922L3558.03 206.672L3559.51 205.328L3468.88 105.578L3467.4 106.922ZM3558.77 207H3605.32V205H3558.77V207ZM3606.32 206V73H3604.32V206H3606.32ZM3605.32 72H3571.12V74H3605.32V72ZM3697.8 164.77V165.77H3698.68L3698.8 164.898L3697.8 164.77ZM3618.95 123.16H3617.95V124.16H3618.95V123.16ZM3653.15 123.16V124.16H3654.15V123.16H3653.15ZM3665.31 164.77H3664.31V165.77H3665.31V164.77ZM3665.31 180.54V179.54H3664.31V180.54H3665.31ZM3665.31 206H3664.31V207H3665.31V206ZM3697.8 206V207H3698.8V206H3697.8ZM3697.8 180.54H3698.8V179.54H3697.8V180.54ZM3698.8 164.898C3699.54 159.118 3703.6 155.309 3709.68 152.219C3715.79 149.112 3723.61 146.887 3731.55 144.101C3739.41 141.342 3747.32 138.049 3753.26 132.817C3759.26 127.54 3763.21 120.323 3763.21 109.86H3761.21C3761.21 119.727 3757.52 126.404 3751.94 131.316C3746.31 136.272 3738.73 139.463 3730.89 142.214C3723.13 144.938 3715.05 147.249 3708.78 150.436C3702.48 153.639 3697.68 157.882 3696.81 164.642L3698.8 164.898ZM3763.21 109.86C3763.21 102.48 3761.5 96.2541 3758.2 91.0821C3754.9 85.9131 3750.06 81.8602 3743.9 78.757C3731.62 72.5683 3713.99 70.1 3692.48 70.1V72.1C3713.91 72.1 3731.15 74.5717 3743 80.543C3748.91 83.5198 3753.45 87.3519 3756.51 92.1579C3759.58 96.9609 3761.21 102.8 3761.21 109.86H3763.21ZM3692.48 70.1C3671.26 70.1 3652.65 72.5651 3639.32 80.4518C3625.88 88.4021 3617.95 101.775 3617.95 123.16H3619.95C3619.95 102.365 3627.6 89.7078 3640.34 82.1731C3653.18 74.5749 3671.33 72.1 3692.48 72.1V70.1ZM3618.95 124.16H3653.15V122.16H3618.95V124.16ZM3654.15 123.16C3654.15 118.524 3654.98 114.868 3656.57 111.975C3658.16 109.095 3660.55 106.899 3663.82 105.242C3670.42 101.894 3680.51 100.79 3694.38 100.79V98.79C3680.52 98.79 3669.99 99.8711 3662.91 103.458C3659.34 105.269 3656.63 107.728 3654.82 111.01C3653.02 114.281 3652.15 118.296 3652.15 123.16H3654.15ZM3694.38 100.79C3706.61 100.79 3714.84 102.027 3719.99 104.292C3722.54 105.417 3724.29 106.773 3725.39 108.31C3726.49 109.836 3727.01 111.608 3727.01 113.66H3729.01C3729.01 111.247 3728.39 109.053 3727.02 107.141C3725.65 105.24 3723.58 103.687 3720.79 102.461C3715.25 100.023 3706.67 98.79 3694.38 98.79V100.79ZM3727.01 113.66C3727.01 116.459 3726.12 118.619 3724.57 120.386C3722.99 122.179 3720.69 123.611 3717.82 124.841C3712.03 127.323 3704.35 128.814 3696.4 130.983C3688.54 133.125 3680.52 135.913 3674.47 141.003C3668.35 146.141 3664.31 153.563 3664.31 164.77H3666.31C3666.31 154.127 3670.11 147.275 3675.75 142.534C3681.45 137.743 3689.11 135.045 3696.93 132.912C3704.65 130.806 3712.65 129.233 3718.61 126.68C3721.62 125.392 3724.22 123.814 3726.07 121.706C3727.95 119.572 3729.01 116.941 3729.01 113.66H3727.01ZM3665.31 165.77H3697.8V163.77H3665.31V165.77ZM3664.31 180.54V206H3666.31V180.54H3664.31ZM3665.31 207H3697.8V205H3665.31V207ZM3698.8 206V180.54H3696.8V206H3698.8ZM3697.8 179.54H3665.31V181.54H3697.8V179.54Z" fill="#FF3568"/>
</g>
<defs>
<clipPath id="clip0">
<rect width="3770" height="297" fill="white"/>
</clipPath>
</defs>
</svg>
