<svg width="72" height="20" viewBox="0 0 72 20" fill="none" xmlns="http://www.w3.org/2000/svg">
<path fill-rule="evenodd" clip-rule="evenodd" d="M0.637111 0H6.80551C10.8888 0 13.0608 2.42254 13.0608 5.97183C13.0608 6.42254 12.9449 7.09859 12.8581 7.52113C12.8291 7.69014 12.8001 7.80282 12.8001 7.91549C12.8001 8.14085 12.887 8.28169 13.2056 8.4507C15.1459 9.52113 16.0147 11.2676 16.0147 13.7465C16.0147 17.2113 13.8137 19.7183 9.29603 19.7183H0.637111C0.173758 19.7183 0 19.5211 0 19.0704V0.647887C0 0.197183 0.173758 0 0.637111 0ZM5.32857 7.74648H6.80551C7.55846 7.74648 8.13765 7.29577 8.13765 6.42253C8.13765 5.57746 7.55846 5.09859 6.80551 5.09859H5.32857C4.86521 5.09859 4.69146 5.29577 4.69146 5.74648V7.09859C4.69146 7.5493 4.86521 7.74648 5.32857 7.74648ZM5.32857 14.6197H9.20915C10.3386 14.6197 10.9757 14.2254 10.9757 13.2958C10.9757 12.3944 10.3386 11.9718 9.20915 11.9718H5.32857C4.86521 11.9718 4.69146 12.169 4.69146 12.6197V13.9718C4.69146 14.4225 4.86521 14.6197 5.32857 14.6197ZM17.8102 19.0704V6.28169C17.8102 5.83099 17.9839 5.6338 18.4473 5.6338H22.0093C22.4726 5.6338 22.6464 5.83099 22.6464 6.28169V19.0704C22.6464 19.5211 22.4726 19.7183 22.0093 19.7183H18.4473C17.9839 19.7183 17.8102 19.5211 17.8102 19.0704ZM17.8102 3.46479V0.647887C17.8102 0.197183 17.9839 0 18.4473 0H22.0093C22.4726 0 22.6464 0.197183 22.6464 0.647887V3.46479C22.6464 3.91549 22.4726 4.11268 22.0093 4.11268H18.4473C17.9839 4.11268 17.8102 3.91549 17.8102 3.46479ZM26.556 10.2817H24.9053C24.4419 10.2817 24.2392 10.1127 24.2392 9.66197V6.25352C24.2392 5.80282 24.4129 5.6338 24.9053 5.6338H26.556C27.0193 5.6338 27.1931 5.43662 27.1931 4.98592V0.647887C27.1931 0.197183 27.3668 0 27.8302 0H31.3922C31.8556 0 32.0293 0.197183 32.0293 0.647887V4.98592C32.0293 5.43662 32.2031 5.6338 32.6664 5.6338H35.9678C36.4312 5.6338 36.6339 5.80282 36.6339 6.25352V9.66197C36.6339 10.1127 36.4312 10.2817 35.9678 10.2817H32.6664C32.2031 10.2817 32.0293 10.4789 32.0293 10.9296V19.0704C32.0293 19.5211 31.8556 19.7183 31.3922 19.7183H27.8302C27.3668 19.7183 27.1931 19.5211 27.1931 19.0704V10.9296C27.1931 10.4789 27.0193 10.2817 26.556 10.2817ZM43.9607 20C41.7018 20 39.3851 19.3239 37.7344 18.338C37.4448 18.169 37.3868 17.8592 37.5606 17.5211L38.8638 15.1268C39.0955 14.7042 39.443 14.7324 39.8484 14.9577C41.0647 15.662 42.6864 16.169 43.9317 16.169C44.7136 16.169 45.2928 15.9437 45.2928 15.4366C45.2928 14.9577 44.7715 14.7887 43.9896 14.7887H43.3525C39.9353 14.7887 37.5896 13.1268 37.5896 10.2535C37.5896 7.04225 40.5434 5.35211 43.7869 5.35211C45.9299 5.35211 47.5227 5.71831 49.2313 6.61972C49.5499 6.78873 49.6657 7.09859 49.463 7.43662L47.9861 9.94366C47.7833 10.3099 47.3489 10.338 46.9725 10.1127C45.8141 9.40845 44.7715 9.21127 43.8159 9.21127C42.9471 9.21127 42.5127 9.49296 42.5127 9.88732C42.5127 10.3662 42.9471 10.5634 44.1923 10.5634H44.9163C48.1888 10.5634 50.3028 12.1127 50.3028 14.8169C50.3028 18.169 47.6675 20 43.9607 20ZM61.0822 12.0845L65.7737 18.9014C66.0633 19.3239 65.8895 19.7183 65.3683 19.7183H61.1691C60.6768 19.7183 60.3003 19.662 59.8949 19.0704L57.636 15.8873C57.3754 15.5211 57.1148 15.5211 56.7962 15.831L56.5645 16.0563C56.1881 16.4225 56.1591 16.6197 56.1591 17.1268V19.0986C56.1591 19.5211 55.9853 19.7183 55.522 19.7183H51.931C51.4966 19.7183 51.3228 19.5211 51.3228 19.0986V0.619718C51.3228 0.197183 51.4966 0 51.931 0H55.522C55.9853 0 56.1591 0.197183 56.1591 0.619718V8.8169C56.1591 9.26761 56.5935 9.38028 56.912 9.01408L59.3736 6.30986C59.779 5.85916 60.1845 5.6338 60.7058 5.6338H65.2235C65.7737 5.6338 65.9185 6.11268 65.542 6.47887L61.1691 11.0141C60.8216 11.3803 60.7347 11.6056 61.0822 12.0845ZM67.1637 19.0704V6.28169C67.1637 5.83099 67.3375 5.6338 67.8009 5.6338H71.3629C71.8262 5.6338 72 5.83099 72 6.28169V19.0704C72 19.5211 71.8262 19.7183 71.3629 19.7183H67.8009C67.3375 19.7183 67.1637 19.5211 67.1637 19.0704ZM67.1637 3.46479V0.647887C67.1637 0.197183 67.3375 0 67.8009 0H71.3629C71.8262 0 72 0.197183 72 0.647887V3.46479C72 3.91549 71.8262 4.11268 71.3629 4.11268H67.8009C67.3375 4.11268 67.1637 3.91549 67.1637 3.46479Z" fill="black"/>
</svg>
